<?xml version="1.0" encoding="UTF-8" standalone="no"?>
<svg
   xmlns:dc="http://purl.org/dc/elements/1.1/"
   xmlns:cc="http://creativecommons.org/ns#"
   xmlns:rdf="http://www.w3.org/1999/02/22-rdf-syntax-ns#"
   xmlns:svg="http://www.w3.org/2000/svg"
   xmlns="http://www.w3.org/2000/svg"
   id="svg1343"
   version="1.1"
   viewBox="0 0 16.933333 19.055186"
   height="72.0196"
   width="64">
  <defs
     id="defs1337">
    <filter
       id="filter3548-0-9-9-6-2-7-4"
       style="color-interpolation-filters:sRGB">
      <feGaussianBlur
         id="feGaussianBlur3546-2-8-4-9-7-9-8"
         result="blur"
         stdDeviation="0.53 0.53" />
    </filter>
    <clipPath
       id="clipPath1494-8-1-1-0-6-2"
       clipPathUnits="userSpaceOnUse">
      <path
         id="path1496-5-2-3-8-5-4"
         d="m 105.69982,60.633665 h 12.66166 v 5.524209 h -12.66166 z"
         style="fill:#ffffff;fill-opacity:1;stroke:none;stroke-width:0.26458332;stroke-opacity:1" />
    </clipPath>
    <clipPath
       id="clipPath1494-8-1-1-1-80-0-9"
       clipPathUnits="userSpaceOnUse">
      <path
         id="path1496-5-2-3-6-8-5-2"
         d="m 105.69982,60.633665 h 12.66166 v 5.524209 h -12.66166 z"
         style="fill:#ffffff;fill-opacity:1;stroke:none;stroke-width:0.26458332;stroke-opacity:1" />
    </clipPath>
  </defs>
  <metadata
     id="metadata1340">
    <rdf:RDF>
      <cc:Work
         rdf:about="">
        <dc:format>image/svg+xml</dc:format>
        <dc:type
           rdf:resource="http://purl.org/dc/dcmitype/StillImage" />
        <dc:title></dc:title>
      </cc:Work>
    </rdf:RDF>
  </metadata>
  <g
     transform="translate(-62.214904,-109.54463)"
     id="layer1">
    <path
       id="path2189"
       d="m 70.681332,109.54463 c -0.265803,0 -0.531266,0.0583 -0.732884,0.17467 l -7.00066,4.04145 c -0.403287,0.23282 -0.732884,0.80437 -0.732884,1.27005 v 8.0829 c 0,0.23286 0.08245,0.49244 0.215415,0.72259 0.132868,0.23014 0.315884,0.43106 0.517469,0.54746 l 7.00066,4.04142 c 0.403219,0.23286 1.063009,0.23286 1.466245,0 l 7.000182,-4.04142 c 0.201652,-0.11651 0.385078,-0.31725 0.517946,-0.54746 0.132868,-0.23015 0.215416,-0.48973 0.215416,-0.72259 v -8.0829 c 0,-0.23288 -0.08244,-0.49244 -0.215416,-0.7226 -0.132868,-0.23019 -0.316345,-0.43102 -0.517946,-0.54745 l -7.000182,-4.04145 c -0.201618,-0.11634 -0.467558,-0.17467 -0.733361,-0.17467 z m 0,3.88316 c 2.008312,0 3.881422,1.08088 4.888131,2.82059 l -2.442652,1.41334 c -0.503857,-0.8708 -1.441085,-1.41194 -2.445479,-1.41194 -1.556204,0 -2.821989,1.26626 -2.821989,2.82247 0,1.55615 1.265785,2.82198 2.821989,2.82198 1.004495,0 1.941554,-0.54097 2.445479,-1.41192 l 2.442652,1.4138 c -1.006709,1.73988 -2.879701,2.82057 -4.888131,2.82057 -3.112357,0 -5.644439,-2.53208 -5.644439,-5.64443 0,-3.11237 2.532082,-5.64446 5.644439,-5.64446 z m 4.390338,4.70363 h 0.627049 v 0.62704 h 0.627068 v 0.62754 h -0.627068 v 0.62707 H 75.07167 V 119.386 h -0.627067 v -0.62754 h 0.627067 z m 2.351808,0 h 0.627067 v 0.62704 h 0.627051 v 0.62754 h -0.627051 v 0.62707 H 77.423478 V 119.386 h -0.627049 v -0.62754 h 0.627049 z"
       style="fill:#ffffff;fill-opacity:1;stroke-width:0.05533778" />
  </g>
</svg>
