<?xml version="1.0" encoding="UTF-8" standalone="no"?>
<svg
   xmlns:dc="http://purl.org/dc/elements/1.1/"
   xmlns:cc="http://creativecommons.org/ns#"
   xmlns:rdf="http://www.w3.org/1999/02/22-rdf-syntax-ns#"
   xmlns:svg="http://www.w3.org/2000/svg"
   xmlns="http://www.w3.org/2000/svg"
   id="svg1343"
   version="1.1"
   viewBox="0 0 16.933333 19.055186"
   height="72.0196"
   width="64">
  <defs
     id="defs1337">
    <filter
       id="filter3548-0-9-9-6-2-7-4"
       style="color-interpolation-filters:sRGB">
      <feGaussianBlur
         id="feGaussianBlur3546-2-8-4-9-7-9-8"
         result="blur"
         stdDeviation="0.53 0.53" />
    </filter>
    <clipPath
       id="clipPath1494-8-1-1-0-6-2"
       clipPathUnits="userSpaceOnUse">
      <path
         id="path1496-5-2-3-8-5-4"
         d="m 105.69982,60.633665 h 12.66166 v 5.524209 h -12.66166 z"
         style="fill:#ffffff;fill-opacity:1;stroke:none;stroke-width:0.26458332;stroke-opacity:1" />
    </clipPath>
    <clipPath
       id="clipPath1494-8-1-1-1-80-0-9"
       clipPathUnits="userSpaceOnUse">
      <path
         id="path1496-5-2-3-6-8-5-2"
         d="m 105.69982,60.633665 h 12.66166 v 5.524209 h -12.66166 z"
         style="fill:#ffffff;fill-opacity:1;stroke:none;stroke-width:0.26458332;stroke-opacity:1" />
    </clipPath>
  </defs>
  <metadata
     id="metadata1340">
    <rdf:RDF>
      <cc:Work
         rdf:about="">
        <dc:format>image/svg+xml</dc:format>
        <dc:type
           rdf:resource="http://purl.org/dc/dcmitype/StillImage" />
        <dc:title></dc:title>
      </cc:Work>
    </rdf:RDF>
  </metadata>
  <g
     transform="translate(-62.214904,-109.54463)"
     id="layer1">
    <path
       style="display:inline;opacity:1;fill:#ffffff;fill-opacity:1;stroke-width:0.0885819"
       d="m 67.275054,124.97013 c -0.645063,-0.50738 -1.3332,-0.99384 -1.803405,-1.67882 -0.989406,-1.20795 -1.751207,-2.60652 -2.272009,-4.07622 -0.314791,-0.95568 -0.422601,-1.98029 -0.828395,-2.89904 -0.42451,-0.66729 0.07279,-1.39673 0.803663,-1.60886 0.325434,-0.0624 0.897642,-0.3694 0.206933,-0.14995 -0.61923,0.45434 -0.679177,-0.41239 -0.04416,-0.46727 0.433341,-0.0576 0.592863,-0.41235 0.44468,-0.73172 -0.465159,-0.30334 1.127981,-0.63671 0.326373,-1.08935 -0.835076,-0.90095 1.16808,-1.07438 0.673854,-0.0511 -0.118243,0.78679 1.399714,-0.14428 1.047509,0.76438 0.357979,0.43631 1.340543,0.0993 1.316183,0.71143 0.521481,0.0359 0.700463,0.47462 1.189998,0.50831 0.50736,0.22913 1.427131,0.40968 1.599772,0.98142 -0.503349,0.39849 -1.668955,-0.82318 -1.724954,0.27994 0.152049,1.62956 0.113228,3.30821 0.709537,4.86004 0.282004,0.93965 0.965628,1.67933 1.583047,2.41115 0.590728,0.71675 1.390914,1.2213 2.206465,1.64617 0.715442,0.3374 1.486754,0.56117 2.266461,0.70159 0.316231,-0.24189 0.874576,-1.14118 1.367896,-0.76196 0.02345,0.42608 -0.979183,0.8907 -0.04707,0.84362 0.547281,-0.16511 0.926871,0.42323 1.377536,-0.10741 0.415193,0.4918 1.725747,-0.31424 1.430318,0.69103 -0.39947,0.25774 -0.982079,0.10207 -1.382228,0.45656 -0.659717,-0.32951 -1.184951,0.29483 -1.915307,0.21587 -0.811087,0.14526 -1.636247,0.20391 -2.458561,0.20519 -1.349068,-0.1066 -2.726701,-0.15156 -4.010081,-0.6212 -0.722979,-0.21009 -1.428521,-0.62176 -2.063943,-1.03362 z m 1.139352,0.49366 c 0.705963,0.3053 1.396252,0.62706 2.169942,0.72411 1.227477,0.17072 2.495052,0.43331 3.726913,0.19379 -0.557521,-0.25176 -1.133934,0.098 -1.689336,-0.18002 -0.666171,0.14331 -1.381046,-0.0366 -2.058282,-0.12504 -0.770115,-0.34305 -1.601211,-0.57894 -2.322411,-1.0242 -0.901153,-0.32915 0.466064,0.42212 0.70944,0.48295 0.563328,0.31976 -0.619488,-0.1639 -0.786258,-0.29683 -0.471822,-0.26468 -0.531963,-0.20938 -0.04675,0.0594 0.0977,0.0573 0.194316,0.11711 0.296707,0.16585 z m -1.343325,-0.94932 c 0.684093,0.25339 -0.0032,-0.48108 -0.31649,-0.43841 -0.138947,-0.24095 -0.530653,-0.39317 -0.254295,-0.52261 -0.497088,0.17258 -0.520721,-0.65622 -0.754376,-0.5378 -0.525865,-0.16606 -0.204668,-0.75428 -0.831064,-1.11551 -0.05726,-0.38064 -0.622352,-0.71079 -0.802627,-1.2849 -0.07958,-0.29396 -0.638528,-1.13809 -0.295187,-0.3525 0.29234,0.75627 0.806688,1.40392 1.234723,2.05083 0.332374,0.61593 0.724808,1.25966 1.330127,1.6439 0.204037,0.19572 0.401055,0.49563 0.689189,0.557 z m -1.970741,-2.16373 c 0.02378,-0.10336 0.125037,0.22359 0,0 z m 2.790013,2.46747 c 0.151403,-0.0678 -0.217851,-0.0854 0,0 z m 0.371357,0.13539 c -0.0385,-0.18705 -0.169535,0.10466 0,0 z m 0.464819,0.1939 c 0.221313,-0.21071 -0.341044,-0.13281 0,0 z m 0.796707,0.44403 c 0.134418,-0.19877 -0.430397,-0.0751 0,0 z m -1.529861,-1.06647 c 0.343729,-0.22235 -0.443969,-0.003 0,0 z m 0.348695,0.17389 c -0.0097,-0.1176 -0.124228,0.0527 0,0 z m 1.742827,1.08778 c 0.280176,0.17682 1.636086,0.38755 0.787035,0.0725 -0.142021,0.0299 -1.574328,-0.40511 -0.787035,-0.0725 z m -2.766784,-2.15485 c -0.02734,-0.11791 -0.434878,-0.13021 0,0 z m 0.811346,0.47286 c 0.211155,-0.14736 -0.438259,-0.11355 0,0 z m 0.68246,0.41845 c 0.302999,-0.1142 -0.491557,-0.11485 0,0 z m -1.823948,-1.25087 c 0.328751,0.25211 1.325856,0.0324 0.503462,-0.15043 -0.374301,-0.19953 -1.217885,-0.3361 -0.642878,0.12034 l 0.139432,0.0303 z m 2.286163,1.39535 c 0.137006,-0.23332 -0.574246,-0.13329 0,0 z m -0.694689,-0.55212 c 0.803905,0.22741 -0.676006,-0.50837 -0.198344,-0.0836 l 0.105788,0.0479 0.09252,0.0358 z m 1.392806,0.80502 c 0.761348,0.008 -0.687636,-0.10498 0,0 z m -3.277218,-2.08874 c -0.02976,-0.14186 -0.187878,0.0113 0,0 z m 4.565094,2.81115 c 0.02022,-0.25612 -0.248455,0.1906 0,0 z m -3.265846,-2.01549 c -0.04594,-0.13491 -0.237877,-0.005 0,0 z m -1.227057,-0.88464 c 0.437094,-0.0262 -0.598396,-0.19259 0,0 z m -1.453594,-0.93959 c -0.05435,-0.20952 -0.475607,-0.37664 0,0 z m 3.816056,2.42178 c -0.08007,-0.0912 -0.03769,0.0201 0,0 z m 2.375225,1.45759 c -0.0065,-0.1396 -0.129404,0.0529 0,0 z m -2.585441,-1.67467 c 0.0427,-0.17975 -0.3727,-0.0543 0,0 z m -1.769518,-1.12144 c 0.32516,-0.0348 -0.520899,-0.21983 0,0 z m 2.993307,1.85997 c 0.506713,-0.20075 -0.493887,-0.098 0,0 z m -1.557004,-1.05691 c 0.584016,0.0754 -0.694867,-0.39722 -0.12811,-0.0422 z m 2.029667,1.24799 c 0.545244,-0.32595 0.365486,0.76329 0.925028,0.092 0.551956,-0.403 -0.476643,0.49824 0.203601,0.0718 0.491945,-0.32903 1.218564,0.15593 1.677608,0.31422 0.330109,-0.0162 0.651015,0.28544 0.989422,0.10191 0.651468,-0.17547 -1.273884,-0.26025 -0.769177,-0.57156 -0.596082,0.17348 -1.036492,-0.20682 -1.329819,-0.58864 -0.668613,-0.15432 -1.441705,-0.49624 -1.775389,-1.08795 -0.136035,-0.22216 0.196533,0.0314 -0.117434,-0.33186 -0.402883,-0.35835 -0.604073,-0.76513 -0.874544,-1.20074 -0.323105,-0.17238 -0.360761,-0.67974 -0.393404,-0.017 0.0032,-0.41827 -0.390104,-0.69977 -0.48596,-0.58276 -0.0014,-0.4028 0.420223,-0.20088 0.124713,-0.49891 -0.06357,-0.41749 -0.272912,-0.85251 -0.335835,-1.32388 -0.0977,-0.22722 -0.01456,-0.71384 -0.333668,-0.1995 -0.116625,0.54361 -0.03866,-0.66801 0.142668,-0.26846 0.237893,-0.4077 -0.08541,-0.35976 -0.09867,-0.30315 0.154961,-0.34398 0.09802,-0.83192 -0.04044,-0.64579 0.08249,-0.36458 0.130374,-1.34179 -0.123581,-1.16861 0.15399,-0.38126 0.292016,-1.74454 -0.376436,-1.22476 -0.270923,0.003 -0.740077,0.0984 -0.961827,0.20863 0.69532,0.38328 -0.07004,0.13846 -0.352981,0.0775 -0.03688,0.35465 -0.317234,0.20126 -0.667482,0.20474 0.559413,0.0692 -0.272411,0.57215 -0.593333,0.37679 -0.416777,0.1992 0.359695,0.69643 0.0081,0.85016 0.04319,0.23178 -0.638511,-0.0836 -0.58497,0.45158 -0.404614,-0.17022 -0.05564,0.63495 0.146711,0.36263 0.688186,0.18625 0.484472,0.61089 0.50199,1.01426 -0.112096,0.23504 -0.553589,-0.55248 -0.09835,-0.516 -0.359176,-0.58347 -0.397318,-0.2109 -0.695772,0.0602 -0.06939,0.0197 0.761316,0.38566 0.239963,0.56663 0.458689,0.0708 0.471726,0.47214 0.565091,0.72613 0.275695,0.28715 0.219259,-0.31705 0.549125,0.028 -0.208744,-0.30743 -1.105659,-0.86618 -0.38352,-0.68697 -0.0032,-0.30942 -0.130536,-0.55891 0.09074,-0.55286 0.219081,-0.39678 -0.229465,0.97829 0.264389,0.47402 0.136682,-0.0597 0.170554,-0.39728 0.416276,0.0319 0.356912,0.3511 0.128918,0.60553 -0.374511,0.28404 0.08994,0.30555 0.673466,0.41476 0.563829,0.89258 0.11614,0.42027 0.278849,0.26547 0.420595,0.24118 0.111287,0.40835 0.174323,0.10805 0.179596,-0.0862 0.509123,0.10902 0.389878,0.40994 0.549174,0.6202 0.350814,0.15836 -0.502152,-1.07336 0.100126,-0.37037 0.633691,0.57211 0.23765,0.81094 -0.331015,0.71928 0.359921,-0.0291 0.47598,0.48659 0.926192,0.46847 0.410534,0.1953 0.688477,0.94543 -0.01909,0.63316 -0.245447,-0.22128 -1.113989,-0.49429 -0.404597,-0.0734 0.655204,0.30342 1.175602,0.48493 1.807513,0.86579 0.452251,0.32285 0.647618,0.69264 0.81903,0.76583 -0.380108,0.18154 -1.145435,-0.14493 -0.577125,-0.24504 -0.354486,-0.0645 -0.75318,-0.24383 -0.41364,0.19784 0.288716,0.24105 1.022857,0.21551 1.154461,0.24283 -0.111611,0.2458 -0.303,0.26536 0.0049,0.28441 -0.343146,0.18287 0.109994,0.21119 0.141859,0.31568 z m -0.701692,-1.98156 c -0.208761,-0.21834 -0.262739,-0.62729 -0.03704,-0.27144 0.115655,0.0464 0.370726,0.66829 0.03704,0.27144 z m 2.285175,1.45159 c 0.130213,-0.008 0.0032,0.099 0,0 z m -2.614815,-1.98694 c -0.0081,-0.33009 0.07554,0.25461 0,0 z m -0.22712,-0.30558 c -0.262593,-0.50738 0.331047,0.14364 0,0 z m -2.752292,-1.89962 c 0.154314,-0.0411 0.07586,0.26385 0,0 z m 2.190485,1.18731 c 0.09479,-0.35579 0.111287,0.29854 0,0 z m -1.547509,-1.07605 c -0.109185,-0.19633 0.228171,0.18414 0,0 z m 1.328072,0.42573 c -0.248779,-0.55737 0.176151,-0.30445 0.055,0.0914 z m -2.290287,-1.52738 c -0.111287,-0.18287 -0.295219,-0.71941 -0.235984,-0.8832 0.0537,0.26675 0.567258,1.14797 0.251965,0.36503 -0.34842,-0.6563 0.416503,0.21303 0.49518,0.37673 0.03672,0.16285 -0.214956,-0.0445 -0.04448,0.33736 -0.310909,-0.43474 -0.183543,0.24012 -0.466695,-0.19592 z M 65.5781,118.73731 c 0.02911,-0.42517 0.162046,0.29157 0,0 z m 0.318382,0.10967 c 0.151888,-0.3209 0.257627,0.4474 0,0 z m -0.765877,-0.59247 c -0.263531,-0.26187 -0.45424,-0.50326 0.01294,-0.16252 0.179775,0.006 -0.399421,-0.54895 0.04319,-0.17655 0.46553,0.0849 0.229886,0.76328 -0.05564,0.33907 z m 0.402316,-0.0113 c 0.153021,-0.15156 0.0812,0.1493 0,0 z m 0.24755,0.0794 c -0.232005,-0.43488 0.281583,0.18233 0,0 z m -0.492123,-0.47029 c -0.766103,-0.68177 0.962652,0.35651 0.125198,0.12633 z m 2.194981,1.27534 c -0.331516,-0.19878 -0.08783,-1.39937 0.02507,-0.57826 0.322281,-0.10433 -0.01779,0.42407 0.222591,0.41917 -0.03801,0.33335 -0.145417,0.45319 -0.247792,0.15901 z m 0.811864,0.47983 c 0.03251,-0.36183 0.06842,0.24737 0,0 z m -0.14105,-0.13927 c 0.03656,-0.15464 0.0032,0.18202 0,0 z m -2.715557,-1.83987 c -0.492171,-0.67903 1.430366,0.68688 0.315228,0.17224 -0.116625,-0.0304 -0.256721,-0.0414 -0.315228,-0.17224 z m 1.563393,0.82892 c -0.04659,-0.57178 0.10417,0.0948 -1.6e-5,-2e-5 z m 1.186973,0.76142 c 0.09188,-0.32569 0.0065,0.21546 0,0 z m -2.674972,-1.84948 c 0.292501,-0.0626 1.212207,0.51371 0.36762,0.1646 -0.09382,-0.10385 -0.293876,-0.0568 -0.36762,-0.1646 z m 2.511891,1.25193 c 0.03122,-0.58465 0.174631,-0.34923 7.27e-4,0.0836 l -7.27e-4,-0.0836 v -2e-5 z m -2.294153,-1.45537 c 0.119214,-0.17484 -0.316376,-0.79043 0.06276,-0.22083 0.163842,0.13021 0.474362,0.21809 0.200204,0.27285 0.43119,0.3804 -0.105141,0.10303 -0.262981,-0.0521 z m 2.169909,1.27275 c 0.08233,-0.66599 0.07263,0.39018 0,0 z m -2.418817,-1.88789 c 0.09107,-0.039 0.04804,0.12132 0,0 z m 0.565996,0.33689 c 0.145741,-0.30566 0.268707,0.34088 0,0 z m 1.596569,0.88814 c -0.0014,-0.11743 0.03009,0.17075 0,0 z m -0.09252,-0.20475 c -0.221587,-0.5467 0.206141,0.28945 0,0 z m -0.136035,-0.35843 c -0.0372,-0.22591 0.12633,0.2838 0,0 z m 0.221442,-0.35995 c -0.15205,-0.26798 0.192035,-1.18089 0.23042,-0.61472 -0.160461,0.44117 -0.04626,0.68796 0.06567,0.0962 0.206755,-0.46568 -0.04464,0.91896 -0.296092,0.51848 z m 0.227557,-1.35767 c 0.06632,-0.0814 0.01456,0.098 0,0 z m -0.380011,7.48821 c -0.0901,-0.0786 0.01132,0.0501 0,0 z m 0.782861,0.39601 c 0.435477,0.11177 0.433245,-0.0678 0.03963,-0.12099 -0.211688,-0.19692 -0.879655,-0.40582 -0.281793,-0.0244 0.03963,0.10029 0.164715,0.098 0.242115,0.14558 z m -1.546117,-1.02692 c 0.239882,0.17889 0.903627,0.50702 0.341755,0.0681 0.189448,-0.2201 -0.362589,-0.33726 -0.179483,-0.48449 -0.465773,-0.28501 -0.36741,-0.25966 -0.04109,-0.25069 -0.559769,-0.25021 0.08072,-0.2315 0.05063,-0.35971 -0.215846,-0.0427 -1.072112,-0.38059 -0.568375,0.0278 -0.512067,-0.26109 -0.122125,0.0972 -0.276811,0.0594 -0.523633,-0.14283 0.46634,0.39881 -0.08314,0.26436 0.300395,0.23807 0.808597,0.6098 0.126978,0.25193 -0.08994,0.12924 0.487755,0.32522 0.629517,0.42334 z m 0.81877,0.47038 c 0.995553,0.32081 -0.488079,-0.39194 0,0 z m 4.191376,2.53914 c 0.01294,-0.19751 -0.136036,0.16848 0,0 z m 0.430802,0.18131 c 0.229676,-0.22258 0.0097,0.35451 0.380593,-0.0545 0.0049,-0.2928 -0.01132,-0.46575 -0.42658,-0.10999 -0.114361,0.0634 -0.165524,0.33333 0.04594,0.16455 z m -6.838478,-4.29464 c -0.07053,-0.2773 -0.494452,-0.27586 0,0 z m 0.460015,0.30144 c -0.17083,-0.28323 -0.609509,-0.25641 0,0 z m 2.616999,1.57826 c 0.255508,0.22694 1.173483,0.16653 0.310327,0.028 -0.127786,-0.18902 -0.811783,-0.14347 -0.310327,-0.028 z m 3.597525,2.22177 c 0.393243,-0.32998 -0.381013,0.1472 0,0 z m 0.817849,0.56203 c 0.0015,-0.10595 -0.169503,0.0463 0,0 z m 0.0014,-0.14833 c 0.435477,-0.46139 -0.421954,0.0273 0,0 z m -8.625065,-5.46246 c -0.371147,-0.52955 -0.230711,-0.76759 -0.588626,-1.19999 -0.06778,-0.33066 -0.614038,-1.081 -0.282537,-0.28607 0.303614,0.4649 0.393841,1.18473 0.871163,1.48606 z m 8.488491,5.31578 c 0.801155,-0.51782 -0.328864,-0.22556 0,0 z m 0.611563,0.23959 c 0.401216,-0.34447 -0.253778,-0.072 0,0 z m -8.104987,-5.19351 c 0.114846,-0.17081 -0.296529,-0.0218 0,0 z m 7.977297,5.02993 c 0.388455,-0.25046 -0.08961,-0.21201 -0.07053,0.023 z m -5.27185,-3.32286 c -0.01294,-0.16913 -0.205121,0.0145 0,0 z m 0.325807,0.18745 c -0.103523,-0.20932 -0.159167,0.0328 0,0 z m 5.569366,3.30467 c 0.497655,-0.35901 -0.301689,-0.0687 -0.104494,0.0679 z m -0.190564,-0.092 c 0.405406,-0.33971 -0.428019,0.1506 0,0 z m 0.973651,0.6484 c 0.272201,-0.18232 -0.330691,-0.059 0,0 z m -9.13407,-5.87866 c 0.36487,0.0817 1.458106,0.89857 0.813141,0.0564 -0.330319,-0.0979 -0.132315,-0.90521 -0.469137,-0.76231 0.226133,0.37779 0.18605,0.53859 -0.288765,0.30042 -0.596746,-0.2913 -0.33535,0.14429 -0.218725,0.26444 -0.159005,0.0361 0.210233,0.13798 0.163486,0.14105 z m -1.662307,-1.3128 c 0.06519,-0.27016 -0.601453,-1.4863 -0.314872,-0.60936 0.103524,0.18368 0.09301,0.53183 0.314872,0.60936 z m 3.051053,1.88105 c -0.187878,-0.15707 -0.0081,-0.0222 0,0 z m 0.462667,0.10772 c -2.42e-4,-0.28619 -0.511404,-0.11614 0,0 z m 4.009354,2.52754 c -0.07651,-0.19555 -0.302272,-0.005 0,0 z m 0.192536,0.14056 c -0.02847,-0.10951 -0.111125,0.0212 0,0 z m 1.589161,1.00099 c 0.152858,-0.1129 -0.190725,-0.0146 0,0 z m -8.474515,-5.4459 c 0.437175,-0.16926 -0.468394,-0.12067 0,0 z m 6.339788,3.9941 c -0.0049,-0.28302 -0.278704,0.0702 0,0 z m -6.51251,-4.39661 c 0.280806,-0.0948 -0.259778,-0.0624 0,0 z m 0.815099,0.39485 c -0.0049,-0.093 -0.08622,0.0353 0,0 z m 9.941664,6.09636 c 0.361085,-0.0733 1.183981,0.18378 1.316976,-0.0958 -0.438518,-0.0113 -1.517164,-0.30939 -1.568197,0.0713 l 0.09608,0.0146 0.155123,0.01 z m -9.682614,-6.03108 c 0.0065,-0.28679 -0.223642,-0.0113 0,0 z m -2.14309,-1.48661 c -0.09738,-0.54642 -0.370176,-0.0827 0,0 z m 0.511048,0.12843 c 0.0065,-0.17543 -0.467762,-0.15787 0,0 z m 0.292049,0.14348 c -0.08444,-0.0684 -0.06616,0.0864 0,0 z m 1.837616,1.17882 c 0.08654,-0.0794 -0.204814,-0.0589 0,0 z m -2.032126,-1.50231 c -0.0495,-0.4127 -0.59191,-0.0618 0,0 z m -1.047735,-0.67983 c -0.01456,-0.19046 -0.102067,0.0718 0,0 z m 0.15577,-0.11775 c -0.0254,-0.22586 -0.133771,0.0288 0,0 z m 0.861102,0.51399 c 0.36411,-0.14299 -0.663244,-0.29585 -0.07441,-0.027 z m 11.52429,7.11836 c 0.233056,-0.21368 -0.29619,-0.066 0,0 z m 1.392224,0.72167 c 0.09349,-0.27626 -0.235159,0.0364 0,0 z m -12.8286,-8.29136 c 0.03833,-0.26723 -0.288668,0.0531 0,0 z m -1.225116,-0.82082 c -0.06583,-0.37728 -0.05678,-1.03952 0.572694,-0.81572 -0.840285,0.16684 0.581573,1.04439 0.402025,0.35153 0.353305,0.0173 0.691162,-0.20881 0.505743,0.13425 0.696144,-0.0768 1.178772,-0.68053 1.851203,-0.59595 0.523779,-0.0694 1.096488,-0.12196 1.660932,-0.33273 0.46409,-0.0335 0.910825,-0.53308 0.656466,-0.82924 -0.632899,-0.0535 -1.295382,0.0257 -1.994891,0.16467 -0.775145,0.16111 -1.479216,0.46729 -2.261333,0.59872 -0.762318,0.10239 0.153344,0.28215 -0.06503,0.32218 -0.397788,0.13798 0.474394,0.2311 -0.0516,0.3766 -0.32482,-0.0618 -0.662936,-0.17337 -0.524183,-0.51567 -0.730258,0.0948 -1.371924,0.39783 -0.794993,1.14094 l 0.04303,3.3e-4 v -3e-5 z m 1.759618,-0.89617 c 0.171218,-0.63074 0.91728,0.51903 0.280629,0.0838 -0.07603,-0.0569 -0.20111,-0.10336 -0.280629,-0.0838 z m 0.03332,-0.3058 c 0.247113,-0.1841 0.131345,0.1032 0,0 z m 0.313772,0.005 c 0.02232,-0.29024 0.718289,0.15367 0.114684,0.10449 z m 0.429216,-0.17258 c 0.156741,-0.18313 0.04497,0.16291 0,0 z m 0.109832,-0.0736 c 0.261008,-0.3136 1.478035,-0.20014 0.587202,-0.0306 -0.238782,-0.17975 -0.421808,0.10595 -0.587202,0.0306 z m 1.588287,-0.24484 c -0.03963,-0.8566 0.789057,0.30443 0,0 z m 0.450665,-0.003 c 0.164748,-0.43174 0.639385,-0.17324 0.07619,-0.0867 0.01132,0.0459 -0.0165,0.2229 -0.07619,0.0867 z m -3.637268,2.28961 c 0.492301,-0.30147 -0.52263,-0.26155 0,0 z m 0.363997,0.10109 c 0.172609,-0.18354 -0.375029,-0.0744 0,0 z m -1.072516,-0.76118 c 0.281292,-0.21609 -0.332875,-0.0822 0,0 z m 14.536505,9.09403 c 0.0081,-0.2507 -0.215004,0.11291 0,0 z m -1.477096,-1.008 c 0.04206,-0.28864 -0.18982,0.0252 0,0 z m 1.883263,1.10522 c 0.393307,10e-4 1.191664,-0.12213 0.335932,-0.1218 -0.134256,0.021 -0.782456,0.0165 -0.335932,0.1218 z m -13.549968,-8.60739 c 0.318285,-0.0218 0.497978,-0.3511 -0.06147,-0.33218 -0.867217,-0.0898 0.765116,0.29694 -0.111288,0.18636 -0.117757,0.078 0.165977,0.1674 0.172819,0.14574 z m 0.280305,0.14186 c -0.03316,-0.20438 -0.09851,0.10854 0,0 z m 0.332535,-0.88671 c 0.138139,-0.17131 -0.191129,-0.0458 0,0 z m -1.058572,-1.76943 c 0.568067,-0.19325 1.344894,-0.41041 1.613116,0.0951 -0.272977,-0.32854 -0.110155,-0.65197 0.147683,-0.17162 0.364563,0.48602 0.547087,-0.22106 0.30997,-0.38407 0.270212,0.33573 0.577546,0.4944 0.180907,0.0212 0.431012,-0.51848 -0.863027,0.0679 -1.157146,0.062 -0.141535,0.0636 -1.461018,0.33651 -1.094498,0.37732 z m 0.332924,-0.63761 c 0.323962,-0.24451 1.120476,0.14542 0.609363,-0.243 -0.04998,-0.0442 -1.119328,0.29457 -0.609363,0.243 z m 1.181118,0.0487 c 0.379153,0.01 -0.163567,-0.50937 0.288263,-0.27418 -0.07425,-0.2424 -0.526043,-0.28779 -0.746952,-0.38463 -0.124874,0.22163 0.254327,0.6618 0.458689,0.65881 z m -0.974007,-1.07214 c 0.131183,-0.17782 -0.229903,0.0901 0,0 z m 0.482725,0.11549 c 0.611045,-0.081 -0.15577,-0.26313 -0.123096,-0.006 z m -0.901363,-0.7053 c -0.430236,-0.56161 0.809114,0.0945 0.372004,-0.49363 -0.367912,-0.29297 -0.721459,0.32967 -0.372004,0.49363 z m 5.521324,2.97394 c 0.197325,-0.34981 -0.814694,-0.47151 -0.132962,-0.12406 0.06276,0.021 0.04853,0.14816 0.132962,0.12406 z"
       id="path2900" />
  </g>
</svg>
