<?xml version="1.0" encoding="UTF-8" standalone="no"?>
<svg
   xmlns:dc="http://purl.org/dc/elements/1.1/"
   xmlns:cc="http://creativecommons.org/ns#"
   xmlns:rdf="http://www.w3.org/1999/02/22-rdf-syntax-ns#"
   xmlns:svg="http://www.w3.org/2000/svg"
   xmlns="http://www.w3.org/2000/svg"
   id="svg1343"
   version="1.1"
   viewBox="0 0 16.933333 19.055186"
   height="72.0196"
   width="64">
  <defs
     id="defs1337">
    <filter
       id="filter3548-0-9-9-6-2-7-4"
       style="color-interpolation-filters:sRGB">
      <feGaussianBlur
         id="feGaussianBlur3546-2-8-4-9-7-9-8"
         result="blur"
         stdDeviation="0.53 0.53" />
    </filter>
    <clipPath
       id="clipPath1494-8-1-1-0-6-2"
       clipPathUnits="userSpaceOnUse">
      <path
         id="path1496-5-2-3-8-5-4"
         d="m 105.69982,60.633665 h 12.66166 v 5.524209 h -12.66166 z"
         style="fill:#ffffff;fill-opacity:1;stroke:none;stroke-width:0.26458332;stroke-opacity:1" />
    </clipPath>
    <clipPath
       id="clipPath1494-8-1-1-1-80-0-9"
       clipPathUnits="userSpaceOnUse">
      <path
         id="path1496-5-2-3-6-8-5-2"
         d="m 105.69982,60.633665 h 12.66166 v 5.524209 h -12.66166 z"
         style="fill:#ffffff;fill-opacity:1;stroke:none;stroke-width:0.26458332;stroke-opacity:1" />
    </clipPath>
  </defs>
  <metadata
     id="metadata1340">
    <rdf:RDF>
      <cc:Work
         rdf:about="">
        <dc:format>image/svg+xml</dc:format>
        <dc:type
           rdf:resource="http://purl.org/dc/dcmitype/StillImage" />
        <dc:title></dc:title>
      </cc:Work>
    </rdf:RDF>
  </metadata>
  <g
     transform="translate(-62.214904,-109.54463)"
     id="layer1">
    <path
       id="path2156"
       d="m 78.943967,126.96533 -0.35126,-0.34065 c -0.332848,-0.44202 -0.761061,-0.83033 -1.210485,-1.15272 -0.358345,-0.25726 -1.162926,-0.60475 -1.312484,-1.02166 l -0.02751,-0.0262 c 0.254193,-0.0287 0.550923,-0.12056 0.78549,-0.18356 0.393946,-0.10555 0.719157,-0.0784 1.125993,-0.18327 0.183425,-0.0524 0.389277,-0.10489 0.523527,-0.15725 v -0.10471 c -0.134233,-0.21094 -0.325862,-0.49023 -0.550107,-0.68116 -0.586608,-0.4995 -1.213953,-0.99858 -1.873198,-1.41482 -0.365631,-0.23068 -0.811153,-0.38066 -1.198512,-0.5763 -0.130398,-0.0659 -0.356094,-0.10022 -0.442287,-0.20972 -0.203718,-0.25942 -0.312588,-0.58838 -0.4697,-0.89063 -0.328848,-0.63336 -0.651073,-1.32499 -0.942435,-1.99139 -0.19875,-0.45438 -0.328048,-0.9023 -0.575905,-1.30995 -1.189658,-1.95592 -2.469927,-3.13631 -4.45338,-4.29669 -0.422277,-0.24679 -0.930379,-0.34412 -1.467463,-0.47168 -0.287876,-0.0173 -0.576153,-0.0349 -0.864279,-0.0525 -0.176038,-0.0734 -0.359062,-0.28856 -0.523944,-0.39301 -0.657377,-0.41517 -2.342898,-1.31814 -2.82964,-0.1309 -0.307353,0.74936 0.459211,1.48034 0.733398,1.86019 0.192679,0.26612 0.439068,0.56488 0.57642,0.86443 0.09054,0.19698 0.106052,0.3945 0.183541,0.60275 0.190411,0.51319 0.35596,1.07149 0.602483,1.5456 0.124395,0.24007 0.261696,0.49278 0.419208,0.70734 0.09638,0.13173 0.26183,0.18973 0.28801,0.39301 -0.161747,0.22638 -0.170918,0.57791 -0.26183,0.86471 -0.409521,1.29103 -0.25486,2.89584 0.340636,3.8513 0.182607,0.29353 0.613104,0.92259 1.205082,0.68117 0.517757,-0.2108 0.433167,-0.86444 0.581256,-1.441 0.03335,-0.13056 -0.02485,-0.22666 0.109387,-0.31433 v 0.0262 c 0.134234,0.31433 0.283308,0.62879 0.440669,0.94313 0.349107,0.5622 0.924994,1.14962 1.449855,1.546 0.272185,0.20557 0.526345,0.56085 0.794896,0.68116 v -0.0133 h 0.02968 c -0.06803,-0.13424 -0.174837,-0.15675 -0.261814,-0.24224 -0.205052,-0.20087 -0.433165,-0.45409 -0.602483,-0.68437 -0.47747,-0.64814 -0.899347,-1.3591 -1.283771,-2.0976 -0.183691,-0.35259 -0.343337,-0.74238 -0.498014,-1.10116 -0.05953,-0.13824 -0.05886,-0.34802 -0.183125,-0.41959 -0.169617,0.2629 -0.419208,0.47532 -0.550407,0.78589 -0.20957,0.49626 -0.236567,1.10156 -0.314339,1.72901 -0.04602,0.0167 -0.02551,0.005 -0.05253,0.026 -0.36493,-0.088 -0.493027,-0.4635 -0.628795,-0.78589 -0.343053,-0.81502 -0.406702,-2.12726 -0.104885,-3.06527 0.07821,-0.24291 0.431148,-1.00717 0.288143,-1.23155 -0.0682,-0.22356 -0.293246,-0.35312 -0.419058,-0.52406 -0.155911,-0.21134 -0.311372,-0.48954 -0.419325,-0.73365 -0.280773,-0.63525 -0.411672,-1.34863 -0.707335,-1.99099 -0.141404,-0.30707 -0.380256,-0.6179 -0.57642,-0.89076 -0.217125,-0.3025 -0.460429,-0.52526 -0.628946,-0.89087 -0.0597,-0.1299 -0.141237,-0.3381 -0.05236,-0.4717 0.02818,-0.0901 0.06803,-0.12773 0.157244,-0.15708 0.152076,-0.11723 0.575086,0.039 0.733515,0.10455 0.420142,0.17455 0.77085,0.33568 1.12681,0.57147 0.170652,0.11339 0.343604,0.25376 0.550107,0.38802 h 0.235784 c 0.36885,0 0.782005,0.0312 1.126677,0.1359 0.608919,0.18518 1.154724,0.47559 1.65047,0.7886 1.510001,0.95359 2.744631,2.31215 3.589334,3.93118 0.135901,0.26077 0.19468,0.51011 0.31434,0.78656 0.24142,0.55763 0.545671,1.13165 0.785892,1.67692 0.239818,0.5442 0.473434,1.09324 0.812336,1.546 0.178173,0.23794 0.86618,0.36577 1.178919,0.49802 0.219242,0.0925 0.578423,0.18919 0.786024,0.3142 0.396497,0.23927 0.780657,0.5242 1.152857,0.78616 0.18581,0.13073 0.757278,0.41811 0.78589,0.65497 -0.921508,-0.0252 -1.625223,0.0607 -2.226888,0.31433 -0.170937,0.072 -0.443773,0.074 -0.471701,0.28827 0.09388,0.0984 0.10872,0.24559 0.183289,0.3667 0.143405,0.23229 0.386159,0.54407 0.602583,0.70734 0.236586,0.17859 0.480155,0.36938 0.733648,0.52392 0.451042,0.27487 0.954291,0.43197 1.388525,0.70736 0.255927,0.16241 0.531446,0.36696 0.78077,0.5501 0.123561,0.0905 0.119559,0.23149 0.388193,0.28828 v -0.026 c -0.134067,-0.10672 -0.127063,-0.25418 -0.204352,-0.36629 z M 66.05886,113.62976 c -0.192145,-0.003 -0.337534,0.021 -0.471834,0.0522 v 0.0197 h 0.02668 c 0.09171,0.13424 0.253491,0.31286 0.366681,0.47506 l 0.26208,0.55159 0.02585,-0.0252 c 0.162414,-0.11456 0.236717,-0.29688 0.235767,-0.57615 -0.06487,-0.0684 -0.0747,-0.15391 -0.130732,-0.23552 -0.07504,-0.10872 -0.220076,-0.17025 -0.314473,-0.2617 z"
       style="display:inline;opacity:1;fill:#ffffff;fill-opacity:1;stroke-width:0.13427143" />
  </g>
</svg>
