<?xml version="1.0" encoding="UTF-8" standalone="no"?>
<svg
   xmlns:dc="http://purl.org/dc/elements/1.1/"
   xmlns:cc="http://creativecommons.org/ns#"
   xmlns:rdf="http://www.w3.org/1999/02/22-rdf-syntax-ns#"
   xmlns:svg="http://www.w3.org/2000/svg"
   xmlns="http://www.w3.org/2000/svg"
   width="64"
   height="72.0196"
   viewBox="0 0 16.933333 19.055186"
   version="1.1"
   id="svg1343">
  <defs
     id="defs1337">
    <filter
       style="color-interpolation-filters:sRGB"
       id="filter3548-0-9-9-6-2-7-4">
      <feGaussianBlur
         stdDeviation="0.53 0.53"
         result="blur"
         id="feGaussianBlur3546-2-8-4-9-7-9-8" />
    </filter>
    <clipPath
       clipPathUnits="userSpaceOnUse"
       id="clipPath1494-8-1-1-0-6-2">
      <path
         style="fill:#ffffff;fill-opacity:1;stroke:none;stroke-width:0.26458332;stroke-opacity:1"
         d="m 105.69982,60.633665 h 12.66166 v 5.524209 h -12.66166 z"
         id="path1496-5-2-3-8-5-4" />
    </clipPath>
    <clipPath
       clipPathUnits="userSpaceOnUse"
       id="clipPath1494-8-1-1-1-80-0-9">
      <path
         style="fill:#ffffff;fill-opacity:1;stroke:none;stroke-width:0.26458332;stroke-opacity:1"
         d="m 105.69982,60.633665 h 12.66166 v 5.524209 h -12.66166 z"
         id="path1496-5-2-3-6-8-5-2" />
    </clipPath>
  </defs>
  <metadata
     id="metadata1340">
    <rdf:RDF>
      <cc:Work
         rdf:about="">
        <dc:format>image/svg+xml</dc:format>
        <dc:type
           rdf:resource="http://purl.org/dc/dcmitype/StillImage" />
        <dc:title></dc:title>
      </cc:Work>
    </rdf:RDF>
  </metadata>
  <path
     id="path6"
     d="M 2.3273992,3.3150387 C 1.5518378,4.0895001 0.7726291,4.8610168 0,5.6384106 V 15.740147 h 14.573291 c 0.788756,-0.782159 1.575685,-1.566515 2.360042,-2.353439 V 3.3150387 Z m 4.0500899,2.1606381 c 0.620889,0.0077 1.2725749,0.1165735 1.7871724,0.4871276 0.3738529,0.2627965 0.6168214,0.6685167 0.7788242,1.0881846 0.2620637,0.689062 0.3390599,1.433106 0.3478564,2.165417 0.0011,0.737443 -0.032237,1.491035 -0.2763413,2.193658 -0.163469,0.477945 -0.4746787,0.902384 -0.885184,1.197068 C 8.425234,13.08581 8.7265095,13.56079 9.0219267,14.039469 8.6506394,14.210634 8.2804833,14.3829 7.9088296,14.553333 7.5925207,14.031406 7.2776468,13.508397 6.9602382,12.987202 6.5310406,13.057572 6.0919662,13.052082 5.6605693,13.004432 5.1437728,12.942494 4.6170765,12.784872 4.2183001,12.437043 3.9118875,12.17168 3.7194562,11.800414 3.5878745,11.422896 3.3723594,10.784414 3.3144496,10.104873 3.3045535,9.43487 3.2994221,8.710622 3.3456426,7.97501 3.5640901,7.280084 3.7330567,6.757423 4.0126912,6.2358758 4.4851387,5.9294631 5.0396869,5.5625742 5.7254459,5.4698125 6.3774891,5.4756768 Z m 4.4030469,0.4303239 c 0.388514,-3.637e-4 0.777038,-3.637e-4 1.165552,0 0.0011,0.5138643 -4.15e-4,1.0273553 7.28e-4,1.5412193 0.496638,7.38e-4 0.993307,9e-6 1.489945,3.74e-4 -0.0084,0.333536 -0.01764,0.667028 -0.02717,1.000563 -0.496271,0.0011 -0.992171,-3.43e-4 -1.488443,7.48e-4 0.0011,0.842269 -0.0026,1.684535 0.0018,2.526803 0.0095,0.230543 0.0044,0.473904 0.10593,0.686854 0.07404,0.164202 0.273431,0.206362 0.4358,0.21186 0.306047,-0.0011 0.611728,-0.01904 0.917773,-0.02454 0.01869,0.306412 0.03669,0.613186 0.05428,0.919598 -0.608794,0.10226 -1.247644,0.224666 -1.852405,0.03334 -0.254733,-0.0755 -0.492276,-0.244454 -0.595635,-0.496255 -0.185094,-0.428465 -0.200092,-0.905346 -0.208156,-1.365332 -7.27e-4,-0.830906 -9e-6,-1.661428 -4.15e-4,-2.492334 -0.27086,-7.38e-4 -0.541736,3.53e-4 -0.8125956,-7.48e-4 -7.377e-4,-0.333169 -7.377e-4,-0.666705 0,-1.000241 0.2708596,-0.0011 0.5413596,4.05e-4 0.8122196,-6.96e-4 0.0011,-0.513864 -3.12e-4,-1.027355 7.27e-4,-1.5412193 z M 6.2403654,6.5036754 C 6.1206108,6.5048054 6.0009197,6.5140984 5.8830598,6.5294464 5.5898421,6.5708634 5.2958633,6.6815712 5.0847464,6.895987 4.8421084,7.146322 4.7226179,7.487168 4.6405169,7.819237 4.4411288,8.699623 4.4763327,9.6159 4.6222089,10.501418 c 0.048381,0.27929 0.1172738,0.558257 0.2426244,0.813722 0.1033593,0.213317 0.2804017,0.387401 0.4889531,0.498457 0.3573592,0.187293 0.7748079,0.216225 1.170652,0.18727 0.3753191,-0.02932 0.7664193,-0.154635 1.0200525,-0.446753 0.2499684,-0.291019 0.3361305,-0.679903 0.3966068,-1.048991 0.086133,-0.620156 0.091983,-1.249846 0.0502,-1.873667 C 7.9528123,8.162674 7.8765557,7.688002 7.677534,7.258071 7.5477851,6.974382 7.3022015,6.750429 7.0130153,6.6360745 6.7675829,6.5380528 6.5038256,6.5011862 6.2403654,6.5036754 Z"
     style="fill:#fefefe;fill-opacity:1;stroke-width:0.03665224" />
</svg>
